# xmcd
#
# Track frame offsets:
#	150
#	16965
#	35939
#	52315
#	67888
#	81347
#	102179
#	116093
#	128100
#	139494
#	161011
#
# Disc length: 2419 seconds
#
# Revision: 0
# Processed by: cddbd v1.5.2PL0 Copyright (c) Steve Scherf et al.
# Submitted via: EasyCDDAExtractor 11.1.0.1
#
DISCID=a209710b
DTITLE=Hayes Carll - Little Rock
DYEAR=2005
DGENRE=Country
TTITLE0=Wish I Hadn't Stayed So Long
TTITLE1=Take Me Away
TTITLE2=Down The Road Tonight
TTITLE3=Good Friends
TTITLE4=Hey Baby Where You Been
TTITLE5=Rivertown
TTITLE6=Little Rock
TTITLE7=Leave Here Standing
TTITLE8=Sit In With The Band
TTITLE9=Long Way Home
TTITLE10=Chickens
EXTD=
EXTT0=
EXTT1=
EXTT2=
EXTT3=
EXTT4=
EXTT5=
EXTT6=
EXTT7=
EXTT8=
EXTT9=
EXTT10=
PLAYORDER=
